<svg width="234" height="170" viewBox="0 0 234 170" fill="none" xmlns="http://www.w3.org/2000/svg">
<rect width="233.25" height="169.5" rx="15" fill="#D93438"/>
<mask id="mask0_1133_4958" style="mask-type:alpha" maskUnits="userSpaceOnUse" x="0" y="0" width="234" height="170">
<rect width="233.25" height="169.5" rx="15" fill="#4FD1C5"/>
</mask>
<g mask="url(#mask0_1133_4958)">
<g opacity="0.2">
<path d="M425.342 169.25C425.342 267.111 340.449 346.5 235.657 346.5C130.865 346.5 45.973 267.111 45.973 169.25C45.973 71.3888 130.865 -7.99999 235.657 -7.99999C340.449 -7.99999 425.342 71.3888 425.342 169.25Z" stroke="white"/>
<path d="M399.629 169.25C399.629 253.839 326.249 322.469 235.657 322.469C145.066 322.469 71.6857 253.839 71.6857 169.25C71.6857 84.6611 145.066 16.0315 235.657 16.0315C326.249 16.0315 399.629 84.6611 399.629 169.25Z" stroke="white"/>
<path d="M370.37 169.25C370.37 238.736 310.09 295.122 235.657 295.122C161.225 295.122 100.945 238.736 100.945 169.25C100.945 99.7639 161.225 43.3776 235.657 43.3776C310.09 43.3776 370.37 99.7639 370.37 169.25Z" stroke="white"/>
<path d="M341.111 169.25C341.111 223.633 293.93 267.776 235.657 267.776C177.385 267.776 130.204 223.633 130.204 169.25C130.204 114.867 177.385 70.7238 235.657 70.7238C293.93 70.7238 341.111 114.867 341.111 169.25Z" stroke="white"/>
<path d="M312.738 169.25C312.738 208.988 278.26 241.259 235.657 241.259C193.054 241.259 158.576 208.988 158.576 169.25C158.576 129.512 193.054 97.2413 235.657 97.2413C278.26 97.2413 312.738 129.512 312.738 169.25Z" stroke="white"/>
<path d="M287.026 169.25C287.026 195.716 264.06 217.227 235.657 217.227C207.255 217.227 184.289 195.716 184.289 169.25C184.289 142.784 207.255 121.273 235.657 121.273C264.06 121.273 287.026 142.784 287.026 169.25Z" stroke="white"/>
<path d="M266.454 169.25C266.454 185.097 252.698 198 235.657 198C218.617 198 204.861 185.097 204.861 169.25C204.861 153.403 218.617 140.5 235.657 140.5C252.698 140.5 266.454 153.403 266.454 169.25Z" stroke="white"/>
</g>
</g>
</svg>
