<svg width="29" height="30" viewBox="0 0 29 30" fill="none" xmlns="http://www.w3.org/2000/svg">
<path fill-rule="evenodd" clip-rule="evenodd" d="M11.6255 2.22761C11.3335 2.22761 10.7407 2.41207 10.4648 2.49445C9.70997 2.71114 9.03528 2.9941 8.32855 3.29854C7.75711 3.54747 6.98985 4.02026 6.51097 4.38917C5.84162 4.91568 5.72769 5.68575 5.72769 6.55431C5.72235 6.84264 5.76507 6.97695 5.75973 7.23841C5.74905 9.82798 5.68496 10.8273 5.25772 13.4491C5.04232 14.7958 4.56167 16.4774 4.15756 17.8188C3.66089 19.4413 2.93279 19.4789 2.93279 20.3045C2.93279 21.4613 4.25547 21.259 4.97823 21.3414C5.0975 21.3575 5.215 21.3467 5.33427 21.3467C5.69565 21.3575 6.08907 21.4219 6.43977 21.4219L9.39132 21.5527C9.81679 21.6171 10.4488 21.5473 10.8813 21.5957C11.346 21.6494 11.9441 21.5527 12.4087 21.6064C13.4341 21.721 16.1151 21.5957 17.2811 21.601C17.5838 21.601 17.7511 21.5634 18.0697 21.5634C18.5077 21.5688 18.9812 21.6386 19.3319 21.3628C19.8072 20.9778 19.7627 20.4782 19.574 19.9731C19.2393 19.067 18.9705 18.1554 18.716 17.226C18.3492 15.8685 18.0947 14.4842 17.8739 13.0676C17.8205 12.7363 17.8152 12.3352 17.598 12.0791C17.1334 11.5311 16.0332 11.8785 15.4564 11.9269C15.1057 11.9591 12.5476 12.2259 12.3856 12.3011C11.9975 12.4856 11.8569 13.2449 12.747 13.3649C13.443 13.458 14.1231 13.4688 14.8725 13.5655C15.1752 13.6031 15.6113 13.664 15.9567 13.664C15.994 14.1583 16.1347 14.7116 16.2148 15.2059C16.4035 16.3574 16.8574 18.0766 17.2348 19.2228C17.2722 19.3266 17.3096 19.5004 17.3488 19.5809L14.4132 19.6454C13.7065 19.726 12.8858 19.6132 12.2005 19.6132C12.0812 19.6132 11.953 19.6239 11.8391 19.6132C11.6824 19.6078 11.6664 19.5809 11.483 19.5809C11.2356 19.5756 10.981 19.5809 10.7336 19.5809C10.4416 19.5809 10.2636 19.5433 10.0162 19.5433C9.76872 19.5433 9.51415 19.5487 9.26671 19.5433C9.02994 19.5433 8.84124 19.5057 8.54929 19.5111C8.10068 19.5111 7.55595 19.4359 7.1198 19.4359L6.05169 19.3983C5.90571 19.3875 5.87367 19.366 5.69031 19.366C5.87367 19.0133 6.02498 18.5512 6.1496 18.1716C6.29023 17.7435 6.42018 17.303 6.54302 16.8696C7.04503 15.1379 7.43311 13.0049 7.58443 11.1747C7.66454 10.1485 7.76245 9.05792 7.76245 7.96729C7.76245 7.66284 7.677 6.28389 7.70904 6.11018C7.78381 5.76275 8.16299 5.69828 8.42112 5.52457C9.28985 4.94433 10.714 4.44469 11.6967 4.24411C13.8222 3.8161 15.679 3.86982 17.7404 4.61303C17.9078 4.67212 18.0644 4.73301 18.2424 4.79748C18.4204 4.86195 18.5557 4.93359 18.7338 5.01955C19.0204 5.15565 20.352 5.74663 20.4232 6.09406C20.4872 6.3985 20.3911 7.07723 20.3965 7.42466C20.3965 7.68433 20.3484 7.83656 20.3804 8.04967C20.4125 8.27711 20.3965 8.52782 20.3965 8.76064C20.3965 9.65606 20.4659 10.5837 20.5638 11.3663C20.7204 12.5931 20.8718 13.7607 21.1299 14.9426C21.2225 15.3492 21.3026 15.7127 21.388 16.0888C21.6461 17.2063 22.3315 19.3231 22.8834 20.1755L23.3142 20.7504C23.3195 20.7557 23.3302 20.7611 23.3302 20.7665C23.3355 20.7719 23.3462 20.7826 23.3516 20.788L23.3836 20.8202C24.4037 21.927 25.5305 22.3406 26.0592 23.9309C26.1625 24.2407 26.1785 24.5327 26.1999 24.8478C26.2052 24.9947 26.2426 24.9839 26.0486 24.9947C25.3365 25.0323 24.1384 25.2168 23.5064 25.2114C22.8371 25.206 22.2443 25.3099 21.5696 25.3153L18.246 25.4621C17.9754 25.4621 17.8419 25.4997 17.6033 25.4997C17.3666 25.4997 17.1173 25.489 16.8859 25.4997L15.5259 25.5319C12.9143 25.5319 10.1942 25.5266 7.65386 25.3905L4.68628 25.206C4.20563 25.206 3.71429 25.1362 3.22474 25.0968C3.004 25.0806 2.74409 25.0377 2.50733 25.0269C2.32931 25.0216 1.94657 24.9947 1.78991 24.9571C1.78991 24.4789 1.74719 24.6311 1.78991 24.0563C1.82195 23.639 1.80059 23.562 1.94657 23.2361C2.08186 22.9316 2.11924 22.6827 2.0872 22.4929C2.01777 21.9932 1.51576 21.8786 1.20245 22.2332C0.586501 22.9334 0.235805 23.9596 0.0862693 24.8604C-0.0169817 25.4621 -0.150496 26.4936 0.501054 26.7981C0.727138 26.9073 1.42319 26.9664 1.75787 26.9772C2.86871 27.0148 3.98667 27.2315 5.08148 27.2315C5.25416 27.2315 5.29154 27.2476 5.41082 27.2637C5.52475 27.2744 5.64224 27.2583 5.75617 27.2691C6.18698 27.3174 6.65695 27.2852 7.10556 27.355C7.53102 27.4195 8.03838 27.3658 8.46028 27.4302L9.84171 27.4786C9.93962 27.9066 10.5805 28.537 10.9419 28.8629C11.0932 28.9937 11.2712 29.1065 11.4439 29.2211C13.1493 30.378 15.4422 30.2043 17.0444 28.9775C17.1636 28.8844 17.2811 28.7985 17.379 28.7C17.5784 28.4994 17.7618 28.3149 17.9238 28.0929C18.0039 27.989 18.0911 27.8869 18.1659 27.7616C18.4187 27.3282 18.4845 27.441 19.0346 27.4464C19.2821 27.4464 19.3746 27.4088 19.6061 27.4088C20.6101 27.4088 21.9417 27.3156 22.967 27.2673C23.1184 27.2565 23.0863 27.2404 23.2198 27.2297L24.0352 27.1867C24.7686 27.1061 26.6574 26.9969 27.2448 26.8876C28.2596 26.7032 28.1883 25.8131 28.1883 24.9553C28.1883 24.3249 27.9783 23.408 27.8109 22.9191C27.7077 22.62 27.5528 22.3711 27.4122 22.0935C27.2235 21.7085 26.9209 21.3503 26.6236 21.0512C26.3708 20.7969 26.1215 20.5462 25.8296 20.3295C25.7548 20.2758 25.721 20.2436 25.6516 20.188C25.5376 20.0949 25.4202 20.0305 25.3009 19.9284C25.1923 19.8353 25.1015 19.7278 24.9929 19.6239C24.8042 19.4341 24.5995 19.1619 24.4695 18.9291C23.7147 17.6039 23.0561 14.6686 22.8193 13.2342L22.5273 11.0744C22.344 9.67934 22.3867 7.93147 22.392 6.33582C22.392 5.90781 22.344 5.59799 22.2354 5.26669C21.9434 4.38201 21.032 3.98086 20.3039 3.54031C20.0333 3.37734 19.7645 3.29138 19.4725 3.1499C18.7017 2.78636 17.5624 2.39058 16.715 2.2491C16.3964 2.19538 16.521 2.2115 16.4569 1.90168C16.2522 0.984765 15.5134 0.289914 14.6215 0.0678491C13.1404 -0.306438 11.6575 0.931039 11.6255 2.22761Z" fill="#D93438"/>
</svg>
