<svg width="502" height="505" viewBox="0 0 502 505" fill="none" xmlns="http://www.w3.org/2000/svg">
<g clip-path="url(#clip0_1133_9833)">
<path fill-rule="evenodd" clip-rule="evenodd" d="M236.872 58.8103C235.228 58.8103 231.892 59.8485 230.339 60.3122C226.09 61.5319 222.293 63.1245 218.315 64.8381C215.098 66.2392 210.78 68.9003 208.084 70.9768C204.317 73.9403 203.675 78.2747 203.675 83.1635C203.645 84.7864 203.886 85.5424 203.856 87.0141C203.796 101.59 203.435 107.214 201.03 121.972C199.818 129.552 197.112 139.017 194.838 146.567C192.042 155.699 187.944 155.911 187.944 160.558C187.944 167.069 195.389 165.93 199.457 166.394C200.128 166.485 200.79 166.424 201.461 166.424C203.495 166.485 205.71 166.848 207.683 166.848L224.297 167.584C226.691 167.946 230.249 167.553 232.683 167.825C235.299 168.128 238.665 167.584 241.281 167.886C247.052 168.531 262.142 167.825 268.705 167.856C270.409 167.856 271.351 167.644 273.144 167.644C275.609 167.674 278.274 168.067 280.248 166.515C282.924 164.348 282.673 161.536 281.611 158.693C279.727 153.593 278.214 148.462 276.781 143.23C274.717 135.59 273.284 127.798 272.042 119.825C271.741 117.96 271.711 115.702 270.489 114.26C267.874 111.176 261.681 113.131 258.435 113.404C256.461 113.585 242.062 115.087 241.15 115.51C238.966 116.549 238.174 120.822 243.184 121.498C247.102 122.022 250.93 122.082 255.148 122.627C256.852 122.838 259.307 123.181 261.25 123.181C261.461 125.963 262.252 129.078 262.703 131.86C263.765 138.341 266.321 148.018 268.445 154.469C268.655 155.054 268.866 156.032 269.086 156.485L252.563 156.848C248.585 157.302 243.966 156.667 240.108 156.667C239.437 156.667 238.715 156.727 238.074 156.667C237.192 156.637 237.102 156.485 236.07 156.485C234.677 156.455 233.245 156.485 231.852 156.485C230.208 156.485 229.206 156.274 227.814 156.274C226.421 156.274 224.988 156.304 223.595 156.274C222.263 156.274 221.2 156.062 219.557 156.092C217.032 156.092 213.966 155.669 211.511 155.669L205.499 155.457C204.677 155.397 204.497 155.276 203.465 155.276C204.497 153.29 205.349 150.689 206.05 148.553C206.842 146.143 207.573 143.664 208.265 141.224C211.09 131.477 213.275 119.472 214.126 109.17C214.577 103.394 215.128 97.2554 215.128 91.1167C215.128 89.4031 214.647 81.6415 214.828 80.6637C215.249 78.7082 217.383 78.3453 218.836 77.3675C223.725 74.1016 231.742 71.2893 237.273 70.1603C249.236 67.7512 259.687 68.0536 271.29 72.2368C272.232 72.5695 273.114 72.9122 274.116 73.2751C275.118 73.6379 275.88 74.0411 276.882 74.525C278.495 75.2911 285.99 78.6175 286.391 80.573C286.751 82.2866 286.21 86.1069 286.24 88.0624C286.24 89.524 285.97 90.3808 286.15 91.5803C286.33 92.8605 286.24 94.2717 286.24 95.5821C286.24 100.622 286.631 105.844 287.182 110.249C288.064 117.153 288.916 123.725 290.369 130.378C290.89 132.666 291.34 134.713 291.821 136.829C293.274 143.119 297.132 155.034 300.238 159.832L302.663 163.068C302.693 163.098 302.753 163.128 302.753 163.158C302.783 163.189 302.843 163.249 302.873 163.279L303.054 163.461C308.795 169.69 315.138 172.019 318.114 180.97C318.695 182.714 318.785 184.357 318.905 186.131C318.936 186.957 319.146 186.897 318.054 186.957C314.046 187.169 307.302 188.207 303.745 188.177C299.978 188.147 296.641 188.731 292.843 188.762L274.136 189.588C272.613 189.588 271.862 189.8 270.519 189.8C269.186 189.8 267.783 189.739 266.481 189.8L258.826 189.981C244.126 189.981 228.816 189.951 214.517 189.185L197.814 188.147C195.108 188.147 192.343 187.754 189.587 187.532C188.345 187.441 186.882 187.199 185.549 187.139C184.547 187.109 182.393 186.957 181.511 186.746C181.511 184.054 181.271 184.911 181.511 181.675C181.692 179.327 181.571 178.893 182.393 177.059C183.155 175.345 183.365 173.944 183.185 172.876C182.794 170.063 179.968 169.418 178.205 171.414C174.738 175.355 172.764 181.131 171.922 186.201C171.341 189.588 170.589 195.394 174.257 197.108C175.529 197.723 179.447 198.055 181.331 198.116C187.583 198.328 193.876 199.547 200.038 199.547C201.01 199.547 201.221 199.638 201.892 199.729C202.533 199.789 203.195 199.698 203.836 199.759C206.261 200.031 208.906 199.85 211.431 200.243C213.826 200.606 216.681 200.303 219.056 200.666L226.832 200.938C227.383 203.347 230.99 206.896 233.024 208.73C233.876 209.466 234.878 210.101 235.85 210.746C245.449 217.258 258.355 216.28 267.373 209.375C268.044 208.851 268.705 208.367 269.256 207.813C270.379 206.684 271.411 205.646 272.323 204.396C272.773 203.811 273.264 203.237 273.685 202.531C275.108 200.092 275.479 200.727 278.575 200.757C279.968 200.757 280.489 200.545 281.791 200.545C287.443 200.545 294.938 200.021 300.709 199.749C301.561 199.688 301.381 199.598 302.132 199.537L306.721 199.295C310.849 198.842 321.481 198.227 324.787 197.612C330.499 196.574 330.098 191.564 330.098 186.736C330.098 183.187 328.915 178.026 327.974 175.275C327.392 173.591 326.521 172.19 325.729 170.628C324.667 168.461 322.964 166.445 321.29 164.761C319.867 163.33 318.465 161.919 316.821 160.699C316.4 160.397 316.21 160.215 315.819 159.903C315.178 159.378 314.517 159.016 313.845 158.441C313.234 157.917 312.723 157.312 312.112 156.727C311.05 155.659 309.897 154.127 309.166 152.816C304.918 145.357 301.21 128.836 299.878 120.762L298.234 108.605C297.202 100.753 297.443 90.9151 297.473 81.9338C297.473 79.5247 297.202 77.7808 296.591 75.916C294.948 70.9365 289.817 68.6786 285.719 66.1989C284.196 65.2816 282.683 64.7978 281.04 64.0015C276.701 61.9552 270.288 59.7275 265.519 58.9312C263.725 58.6288 264.427 58.7195 264.066 56.9757C262.914 51.8147 258.755 47.9037 253.735 46.6538C245.399 44.5471 237.052 51.5123 236.872 58.8103Z" fill="white"/>
<path fill-rule="evenodd" clip-rule="evenodd" d="M177.905 275.064V275.769L177.875 276.475L177.845 277.181L177.784 277.886L177.604 279.328L177.394 280.769L177.123 282.21L176.782 283.682L176.352 285.154L175.891 286.595L175.4 288.067L174.818 289.508L174.207 290.95L173.536 292.361L172.804 293.772L172.043 295.183L171.251 296.534L170.37 297.885L169.488 299.175L168.536 300.465L167.554 301.695L166.512 302.895L165.44 304.064L164.338 305.173L163.786 305.697L163.205 306.221L162.624 306.745L162.043 307.239L161.432 307.733L160.821 308.197L160.209 308.66L159.598 309.094L158.957 309.527L158.346 309.93L157.704 310.334L157.033 310.707L156.392 311.08L155.72 311.422L155.049 311.725L154.378 312.027L153.706 312.299L153.005 312.571L152.334 312.813L151.632 313.025L162.203 263.351L161.772 263.079L161.342 262.837L160.851 262.595L160.36 262.383L159.869 262.171L159.348 261.96L158.797 261.778L158.245 261.627L157.664 261.476L157.083 261.355L156.472 261.234L155.891 261.143L155.279 261.083L154.668 261.022L154.057 260.992H153.446H152.805L152.163 261.022L151.552 261.083L150.911 261.143L150.269 261.234L149.658 261.325L149.017 261.446L148.406 261.597L147.795 261.778L147.183 261.96L146.572 262.171L145.991 262.413L145.41 262.685L144.859 262.958L144.278 263.26L143.756 263.603L143.205 263.976L142.714 264.349L142.193 264.782L141.732 265.216L141.272 265.679L140.811 266.173L140.41 266.697L140.009 267.252L139.608 267.836L139.268 268.451L138.927 269.066L138.616 269.741L138.346 270.447L138.105 271.183L137.895 271.919L137.714 272.715L116.903 371.328L115.831 370.683L114.759 370.037L113.686 369.362L112.644 368.657L111.602 367.921L110.56 367.155L109.518 366.328L108.506 365.471L108.045 365.622L107.584 365.804L107.153 365.985L106.723 366.167L106.322 366.378L105.921 366.59L105.55 366.832L105.179 367.074L104.839 367.316L104.528 367.558L104.218 367.83L103.907 368.102L103.636 368.405L103.396 368.677L103.155 368.979L102.915 369.281L102.705 369.584L102.524 369.927L102.344 370.269L102.163 370.612L101.893 371.287L101.652 371.993L101.472 372.699L101.322 373.434L101.262 374.201L101.232 374.936V375.34L101.292 375.713L101.352 376.116L101.412 376.489L101.532 376.892L101.652 377.265L101.803 377.638L101.983 377.981L102.163 378.353L102.374 378.686L102.614 379.059L102.885 379.402L103.155 379.745L103.466 380.077L103.807 380.38L104.147 380.722L104.518 381.025L104.889 381.327L105.29 381.629L105.721 381.932L106.602 382.517L107.584 383.071L108.626 383.625L109.729 384.119L110.891 384.613L112.113 385.107L113.396 385.541L114.739 385.974L116.141 386.347L117.574 386.72L119.067 387.063L120.6 387.365L122.193 387.667L123.847 387.909L125.5 388.121L127.213 388.333L128.957 388.484L130.73 388.635L132.504 388.726L134.338 388.817L136.201 388.847L138.065 388.877L139.688 388.847L141.312 388.786L142.905 388.696L144.498 388.544L146.061 388.363L147.594 388.121L149.127 387.879L150.62 387.577L152.113 387.204L153.576 386.831L155.009 386.428L156.442 385.964L157.845 385.47L159.247 384.976L160.62 384.422L161.963 383.837L163.305 383.222L164.618 382.577L165.901 381.932L167.153 381.226L168.406 380.521L169.628 379.755L170.82 378.989L172.013 378.192L173.175 377.396L174.307 376.539L175.41 375.682L176.512 374.825L177.554 373.908L178.596 372.991L179.608 372.074L180.62 371.126L181.572 370.148L182.494 369.171L183.416 368.153L184.297 367.134L185.149 366.116L185.971 365.068L186.762 364.02L187.554 362.941L188.285 361.863L188.987 360.784L189.688 359.705L190.329 358.597L190.971 357.488L191.582 356.379L192.133 355.27L192.684 354.161L193.205 353.053L193.666 351.914L194.127 350.805L194.558 349.666L194.929 348.557L195.299 347.448L195.61 346.339L195.921 345.231L196.161 344.122L196.402 343.013L196.582 341.934L196.732 340.826L196.852 339.747L196.943 338.669L196.973 337.62L197.003 336.572L196.973 335.372L196.913 334.173L196.792 332.973L196.612 331.834L196.402 330.695L196.091 329.586L195.78 328.478L195.38 327.429L194.949 326.381L194.458 325.403L194.187 324.909L193.917 324.415L193.646 323.921L193.335 323.458L193.025 322.994L192.684 322.561L192.313 322.097L191.973 321.664L191.602 321.23L191.201 320.827L190.8 320.393L190.37 319.99L189.939 319.617L189.508 319.244L189.047 318.871L188.556 318.498L188.095 318.156L187.574 317.813L187.053 317.47L186.532 317.168L185.981 316.865L185.43 316.563L184.879 316.291L184.267 316.019L183.686 315.777L183.075 315.535L182.434 315.293L181.792 315.081L181.121 314.87L180.45 314.658L179.778 314.477L179.077 314.325L178.346 314.144L177.614 313.993L176.853 313.872L176.091 313.751L175.329 313.66L174.538 313.569L173.716 313.479L172.895 313.418L171.211 313.327L169.438 313.297L169.257 313.116L170.941 312.198L172.594 311.221L174.187 310.203L175.75 309.154L177.243 308.076L178.676 306.967L180.079 305.828L181.422 304.689L182.734 303.489L183.987 302.26L185.179 301.03L186.341 299.77L187.444 298.51L188.486 297.189L189.498 295.899L190.42 294.579L191.301 293.228L192.153 291.877L192.915 290.526L193.646 289.145L194.317 287.795L194.929 286.414L195.48 285.033L196.001 283.652L196.432 282.271L196.832 280.89L197.143 279.509L197.414 278.158L197.624 276.777L197.774 275.427L197.864 274.076L197.895 272.755V271.778L197.834 270.83L197.774 269.883L197.714 268.965L197.594 268.078L197.474 267.221L197.323 266.365L197.143 265.538L196.963 264.742L196.752 263.945L196.512 263.179L196.241 262.444L195.971 261.738L195.66 261.032L195.319 260.357L194.979 259.682L194.608 259.037L194.207 258.422L193.776 257.807L193.345 257.222L192.915 256.637L192.454 256.083L191.963 255.559L191.442 255.035L190.921 254.541L190.37 254.047L189.818 253.583L189.237 253.15L188.716 252.807L188.105 252.374L187.464 251.97L186.822 251.597L186.151 251.225L185.48 250.882L184.778 250.539L184.077 250.196L183.345 249.894L182.614 249.622L181.853 249.35L181.091 249.077L180.299 248.836L179.508 248.594L178.716 248.382L177.865 248.17L176.181 247.797L174.438 247.455L172.634 247.152L170.77 246.941L168.877 246.729L166.953 246.578L164.969 246.457L162.925 246.366L160.881 246.336L158.776 246.305H157.434L156.091 246.336L154.748 246.396L153.406 246.457L152.063 246.547L150.69 246.638L149.348 246.759L147.975 246.91L146.632 247.061L145.259 247.243L143.917 247.455L142.574 247.666L141.231 247.878L139.889 248.12L138.546 248.392L137.203 248.664L135.891 248.967L134.578 249.309L133.266 249.652L131.983 249.995L130.7 250.368L129.418 250.771L128.165 251.174L126.913 251.608L125.66 252.041L124.438 252.474L123.246 252.968L122.053 253.432L120.891 253.956L119.729 254.45L118.596 255.005L117.494 255.529L116.392 256.113L115.32 256.668L114.248 257.252L113.236 257.867L112.224 258.482L111.242 259.127L110.29 259.772L109.368 260.417L108.486 261.093L107.604 261.798L106.783 262.474L105.991 263.21L105.2 263.915L104.468 264.651L103.767 265.417L103.065 266.183L102.424 266.949L101.813 267.746L101.262 268.542L100.711 269.338L100.22 270.165L99.7587 271.022L99.3278 271.848L98.9571 272.705L98.6164 273.592L98.3058 274.479L98.0653 275.366L97.8549 276.253L97.7046 277.17L97.5843 278.118L97.5242 279.035L97.4941 279.983L97.5242 280.84L97.5543 281.696L97.6444 282.523L97.7346 283.349L97.8849 284.176L98.0653 284.972L98.2456 285.769L98.4861 286.565L98.7266 287.331L99.0372 288.067L99.3478 288.803L99.7186 289.508L100.089 290.184L100.49 290.859L100.921 291.504L101.412 292.119L101.873 292.704L102.394 293.258L102.945 293.782L103.526 294.276L104.107 294.77L104.719 295.204L105.36 295.607L106.031 295.949L106.733 296.292L107.464 296.564L108.196 296.806L108.957 297.018L109.749 297.169L110.54 297.29L111.392 297.351L112.244 297.381L113.195 297.351L114.177 297.29L115.159 297.139L116.111 296.957L117.093 296.716L118.105 296.413L119.117 296.01L120.129 295.577L119.729 295.083L119.328 294.558L118.957 294.034L118.616 293.48L118.276 292.925L117.965 292.311L117.694 291.696L117.454 291.051L117.244 290.405L117.033 289.7L116.853 288.994L116.733 288.228L116.612 287.462L116.522 286.636L116.492 285.809L116.462 284.922L116.492 284.065L116.522 283.239L116.612 282.382L116.702 281.585L116.853 280.759L117.003 279.963L117.183 279.166L117.394 278.4L117.664 277.604L117.905 276.868L118.215 276.102L118.556 275.366L118.897 274.63L119.298 273.925L119.698 273.219L120.099 272.513L120.56 271.838L121.021 271.163L121.512 270.518L122.003 269.842L122.554 269.227L123.075 268.582L123.656 267.967L124.238 267.383L124.849 266.798L125.46 266.213L126.071 265.659L126.743 265.105L127.414 264.55L128.085 264.026L128.757 263.532L129.488 263.038L130.189 262.544L130.921 262.081L131.682 261.617L132.414 261.153L133.175 260.72L133.967 260.317L134.759 259.913L135.55 259.51L136.342 259.137L137.163 258.795L137.985 258.422L138.807 258.119L139.628 257.817L140.45 257.514L141.302 257.242L142.153 256.97L143.005 256.728L143.857 256.486L144.708 256.275L145.56 256.063L146.412 255.881L147.263 255.7L148.115 255.549L148.997 255.428L149.849 255.277L150.7 255.186L151.552 255.095L152.404 255.005L153.255 254.974L154.107 254.914L154.929 254.884H155.78L157.153 254.914L158.496 254.944L159.778 255.035L161.031 255.156L162.223 255.337L163.386 255.519L164.488 255.761L165.56 256.033L166.572 256.335L167.554 256.708L168.476 257.111L169.358 257.545L170.209 258.008L171.001 258.533L171.732 259.087L172.434 259.672L173.105 260.317L173.716 260.992L174.297 261.698L174.818 262.464L175.309 263.26L175.77 264.117L176.171 265.004L176.542 265.921L176.853 266.899L177.123 267.947L177.364 268.996L177.544 270.135L177.694 271.304L177.784 272.503L177.845 273.763L177.905 275.064ZM157.825 321.24L158.807 321.27L159.788 321.331L160.71 321.422L161.592 321.543L162.474 321.724L163.295 321.905L164.087 322.147L164.849 322.42L165.55 322.762L166.251 323.105L166.923 323.478L167.564 323.881L168.175 324.345L168.726 324.809L169.277 325.302L169.798 325.827L170.259 326.381L170.72 326.966L171.121 327.581L171.522 328.226L171.863 328.871L172.203 329.546L172.474 330.252L172.714 330.988L172.955 331.754L173.135 332.52L173.315 333.316L173.436 334.112L173.556 334.939L173.616 335.796L173.676 336.653V337.54V338.457L173.616 339.374L173.556 340.291L173.496 341.209L173.376 342.126L173.255 343.013L173.105 343.93L172.925 344.848L172.744 345.735L172.534 346.652L172.293 347.539L172.023 348.426L171.752 349.313L171.442 350.2L171.131 351.087L170.79 351.944L170.42 352.801L170.019 353.657L169.618 354.514L169.217 355.341L168.786 356.167L168.326 356.994L167.865 357.821L167.374 358.617L166.853 359.413L166.362 360.179L165.811 360.945L165.259 361.711L164.708 362.447L164.127 363.183L163.516 363.919L162.935 364.625L162.293 365.3L161.682 365.975L161.011 366.651L160.37 367.296L159.698 367.911L158.997 368.525L158.326 369.14L157.624 369.695L156.893 370.279L156.161 370.804L155.43 371.328L154.668 371.852L153.937 372.316L153.145 372.779L152.384 373.243L151.592 373.646L150.801 374.049L150.009 374.422L149.217 374.795L148.396 375.138L147.574 375.44L146.752 375.713L145.901 375.954L145.079 376.196L144.227 376.408L143.376 376.559L142.524 376.71L141.642 376.862L140.791 376.952L139.909 377.013L139.057 377.073H138.175H137.995L149.668 322.268L150.77 322.026L151.843 321.785L152.885 321.603L153.927 321.452L154.939 321.331L155.951 321.24L156.933 321.21L157.825 321.24Z" fill="white"/>
<path fill-rule="evenodd" clip-rule="evenodd" d="M269.838 311.694V310.928L269.778 310.132L269.718 309.366L269.628 308.57L269.508 307.804L269.357 307.037L269.177 306.271L268.936 305.505L268.696 304.739L268.385 304.003L268.045 303.268L267.644 302.532L267.213 301.826L266.752 301.151L266.231 300.475L265.68 299.83L265.069 299.215L264.397 298.631L263.696 298.076L262.934 297.522L262.113 297.028L261.231 296.564L260.309 296.131L259.297 295.728L258.255 295.355L257.123 295.052L255.961 294.78L254.708 294.569L253.395 294.387L252.023 294.236L250.59 294.175L249.057 294.145L247.654 294.175L246.281 294.266L244.939 294.387L243.596 294.569L242.283 294.81L240.971 295.083L239.718 295.425L238.466 295.829L237.243 296.262L236.021 296.726L234.828 297.25L233.666 297.834L232.534 298.419L231.402 299.064L230.299 299.77L229.197 300.475L228.155 301.241L227.113 302.038L226.101 302.834L225.089 303.721L224.107 304.608L223.155 305.525L222.233 306.473L221.311 307.451L220.43 308.429L219.578 309.477L218.726 310.555L217.935 311.634L217.143 312.743L216.351 313.852L215.62 315.021L214.889 316.16L214.157 317.359L213.486 318.559L212.814 319.758L212.173 320.988L211.562 322.248L210.951 323.478L210.37 324.738L209.818 326.028L209.297 327.288L208.776 328.578L208.285 329.869L207.824 331.159L207.394 332.479L206.963 333.77L206.562 335.06L206.191 336.35L205.82 337.671L205.48 338.961L205.169 340.251L204.899 341.541L204.628 342.801L204.388 344.092L204.177 345.352L203.997 346.612L203.816 347.841L203.666 349.071L203.546 350.271L203.456 351.47L203.366 352.67L203.336 353.839L203.275 354.978V356.117V357.165L203.305 358.214L203.366 359.232L203.426 360.209L203.516 361.187L203.636 362.135L203.756 363.082L203.907 364L204.057 364.887L204.237 365.774L204.418 366.661L204.658 367.487L204.869 368.344L205.109 369.14L205.38 369.937L205.69 370.733L205.961 371.499L206.301 372.235L206.642 372.971L206.983 373.676L207.354 374.382L207.754 375.057L208.155 375.733L208.556 376.378L208.987 376.993L209.418 377.608L209.879 378.222L210.339 378.807L210.83 379.361L211.321 379.916L211.842 380.44L212.364 380.964L212.885 381.458L213.436 381.922L213.987 382.385L214.568 382.849L215.149 383.283L215.73 383.686L216.341 384.089L216.953 384.492L217.564 384.865L218.205 385.208L218.846 385.541L219.488 385.843L220.159 386.145L220.83 386.417L221.502 386.69L222.203 386.932L222.905 387.173L223.606 387.385L224.307 387.597L225.039 387.778L225.77 387.96L226.502 388.111L227.263 388.262L227.995 388.383L228.756 388.504L229.518 388.595L230.309 388.685L231.071 388.746L232.664 388.837L234.257 388.867H235.079L235.931 388.837L236.752 388.806L237.604 388.746L239.287 388.595L241.031 388.353L242.744 388.081L244.488 387.738L246.231 387.335L247.975 386.871L249.748 386.347L251.492 385.762L253.235 385.117L254.979 384.412L256.722 383.676L258.466 382.849L260.179 381.992L261.892 381.075L263.606 380.097L265.259 379.079L266.942 378.001L268.566 376.862L270.189 375.662L271.782 374.432L273.345 373.142L274.878 371.791L276.371 370.41L277.804 368.999L279.237 367.497L280.61 365.965L281.281 365.199L281.952 364.403L282.594 363.606L283.265 362.78L283.876 361.953L284.518 361.127L285.099 360.27L285.71 359.413L285.89 359.111L286.041 358.808L286.161 358.466L286.281 358.163L286.371 357.861L286.431 357.558L286.491 357.216V356.913V356.641V356.339L286.461 356.067L286.401 355.764L286.311 355.492L286.221 355.25L286.101 355.008L285.95 354.766L285.8 354.524L285.62 354.313L285.439 354.131L285.229 353.95L284.988 353.768L284.748 353.617L284.477 353.496L284.167 353.375L283.856 353.285L283.516 353.194L283.175 353.164L282.804 353.133H282.403H282.003L281.572 353.194L281.141 353.254L280.379 354.232L279.588 355.18L278.706 356.127L277.824 357.075L276.872 358.022L275.86 358.939L274.848 359.826L273.776 360.713L272.674 361.601L271.542 362.427L270.379 363.254L269.217 364.05L267.995 364.846L266.772 365.612L265.52 366.318L264.237 367.024L262.955 367.699L261.672 368.314L260.359 368.929L259.047 369.513L257.734 370.037L256.391 370.531L255.079 370.995L253.736 371.398L252.423 371.771L251.111 372.114L249.798 372.386L248.486 372.598L247.203 372.779L245.921 372.9L244.668 372.991L243.416 373.021H242.624L241.862 372.991L241.101 372.93L240.369 372.84L239.608 372.749L238.907 372.628L238.175 372.477L237.504 372.295L236.802 372.114L236.131 371.872L235.49 371.63L234.848 371.358L234.237 371.056L233.626 370.713L233.045 370.34L232.464 369.967L231.913 369.533L231.392 369.07L230.901 368.606L230.41 368.082L229.949 367.558L229.488 366.973L229.057 366.389L228.686 365.743L228.285 365.068L227.945 364.362L227.634 363.627L227.323 362.861L227.053 362.064L226.812 361.238L226.602 360.381L226.422 359.464L229.628 357.649L232.714 355.865L235.62 354.111L238.406 352.418L241.031 350.724L243.506 349.101L245.86 347.509L248.065 345.916L250.139 344.384L252.093 342.852L253.015 342.086L253.937 341.35L254.788 340.614L255.64 339.878L256.431 339.142L257.223 338.406L257.985 337.701L258.686 336.965L259.387 336.259L260.059 335.524L260.7 334.818L261.341 334.112L261.922 333.407L262.474 332.731L263.025 332.026L263.546 331.32L264.037 330.645L264.528 329.939L264.959 329.264L265.389 328.558L265.79 327.883L266.191 327.177L266.532 326.502L266.872 325.827L267.213 325.121L267.524 324.446L267.794 323.77L268.035 323.065L268.275 322.389L268.486 321.684L268.696 321.008L268.876 320.303L269.027 319.627L269.177 318.922L269.297 318.216L269.417 317.511L269.598 316.099L269.748 314.688L269.808 313.247L269.838 311.694ZM250.339 308.408H250.61L250.92 308.439L251.191 308.469L251.432 308.529L251.702 308.62L251.943 308.711L252.213 308.801L252.454 308.922L252.664 309.074L252.904 309.195L253.115 309.376L253.325 309.557L253.726 309.961L254.097 310.394L254.438 310.888L254.748 311.442L254.989 312.027L255.199 312.672L255.379 313.348L255.5 314.053L255.56 314.789L255.59 315.555V316.109L255.56 316.664L255.5 317.249L255.44 317.803L255.379 318.357L255.289 318.942L255.169 319.496L255.049 320.081L254.898 320.635L254.748 321.22L254.568 321.774L254.387 322.359L253.957 323.498L253.436 324.637L252.884 325.806L252.273 326.945L251.602 328.085L250.87 329.254L250.079 330.393L249.227 331.532L248.345 332.701L247.393 333.84L246.381 334.979L245.309 336.118L244.207 337.257L243.045 338.396L241.852 339.535L240.6 340.644L239.317 341.783L237.975 342.892L236.602 344.001L235.169 345.11L233.706 346.218L232.213 347.297L230.68 348.376L229.117 349.454L227.494 350.533L225.84 351.581L225.901 350.321L225.991 348.97L226.141 347.559L226.291 346.057L226.502 344.465L226.742 342.842L227.013 341.189L227.353 339.435L227.694 337.681L228.125 335.897L228.556 334.112L229.047 332.298L229.598 330.514L230.179 328.73L230.82 326.945L231.492 325.222L231.862 324.365L232.233 323.508L232.634 322.682L233.035 321.885L233.466 321.059L233.897 320.293L234.327 319.496L234.788 318.761L235.279 318.025L235.74 317.289L236.261 316.583L236.782 315.908L237.303 315.263L237.854 314.618L238.406 314.003L238.987 313.418L239.568 312.864L240.179 312.34L240.79 311.846L241.432 311.382L242.073 310.918L242.744 310.515L243.416 310.142L244.117 309.799L244.848 309.497L245.58 309.255L246.311 309.013L247.103 308.832L247.864 308.681L248.686 308.59L249.508 308.529L250.339 308.408Z" fill="white"/>
<path fill-rule="evenodd" clip-rule="evenodd" d="M344.818 359.01L344.938 358.667L345.028 358.365L345.088 358.022L345.148 357.679L345.178 357.337V357.034V356.692L345.148 356.349L345.118 356.046L345.058 355.744L344.998 355.442L344.908 355.139L344.818 354.837L344.697 354.565L344.547 354.293L344.427 354.02L344.247 353.778L344.096 353.537L343.916 353.325L343.705 353.113L343.495 352.932L343.285 352.75L343.044 352.599L342.804 352.448L342.563 352.327L342.293 352.236L342.022 352.145L341.711 352.085L341.441 352.055L341.13 352.025L340.79 352.055L340.479 352.085L340.108 353.033L339.677 353.95L339.216 354.867L338.665 355.784L338.084 356.702L337.443 357.558L336.742 358.445L336.01 359.302L335.249 360.129L334.427 360.955L333.605 361.752L332.724 362.518L331.802 363.284L330.85 363.989L329.868 364.695L328.886 365.37L327.874 366.016L326.832 366.63L325.79 367.215L324.748 367.739L323.675 368.263L322.633 368.727L321.561 369.161L320.489 369.564L319.417 369.937L318.375 370.239L317.333 370.511L316.291 370.723L315.279 370.904L314.267 371.025L313.285 371.086L312.333 371.116H311.752L311.14 371.086L310.589 371.025L310.008 370.935L309.487 370.844L308.936 370.723L308.415 370.572L307.924 370.421L307.433 370.209L306.942 369.997L306.481 369.755L306.05 369.483L305.649 369.181L305.249 368.878L304.848 368.505L304.507 368.132L304.167 367.699L303.856 367.265L303.585 366.802L303.315 366.308L303.104 365.784L302.894 365.229L302.714 364.614L302.563 364L302.443 363.354L302.353 362.679L302.293 361.973L302.263 361.238V360.441L302.293 359.645L302.383 358.818L302.473 357.931L302.563 357.105L302.653 356.278L302.744 355.421L302.864 354.565L302.984 353.708L303.104 352.851L303.255 351.994L303.375 351.168L305.549 347.791L307.653 344.475L309.667 341.189L311.651 337.963L313.545 334.768L315.379 331.633L317.122 328.528L318.836 325.484L320.459 322.48L322.022 319.537L323.485 316.654L324.888 313.831L326.261 311.069L327.513 308.368L328.736 305.727L329.868 303.116L330.94 300.596L331.952 298.137L332.904 295.738L333.756 293.409L334.547 291.172L335.279 288.994L335.92 286.877L336.531 284.851L337.022 282.886L337.483 281.011L337.884 279.197L338.194 277.473L338.435 275.85L338.585 274.288L338.645 273.552L338.705 272.816L338.736 272.11V271.435L338.705 270.548L338.675 269.721L338.585 268.865L338.465 268.068L338.315 267.302L338.134 266.536L337.924 265.83L337.683 265.125L337.413 264.449L337.102 263.804L336.762 263.189L336.391 262.575L335.99 262.02L335.559 261.466L335.128 260.972L334.667 260.478L334.146 260.014L333.625 259.581L333.104 259.178L332.523 258.805L331.942 258.462L331.331 258.119L330.689 257.847L330.048 257.605L329.377 257.363L328.675 257.182L327.974 257L327.243 256.879L326.481 256.789L325.72 256.698L324.958 256.668L324.166 256.637L323.064 256.668L321.962 256.758L320.89 256.879L319.818 257.091L318.776 257.333L317.734 257.635L316.722 258.008L315.71 258.442L314.728 258.905L313.746 259.43L312.794 260.014L311.872 260.659L310.95 261.335L310.028 262.101L309.146 262.897L308.265 263.724L307.413 264.641L306.561 265.589L305.74 266.607L304.918 267.655L304.126 268.764L303.335 269.933L302.543 271.163L301.782 272.423L301.02 273.743L300.289 275.094L299.557 276.505L298.856 277.977L298.124 279.509L297.453 281.071L296.752 282.664L296.11 284.317L295.439 286.041L294.798 287.795L294.157 289.609L293.515 291.484L292.904 293.389L292.293 295.325L291.712 297.32L291.13 299.377L290.549 301.463L289.998 303.61L289.417 305.788L288.896 307.995L288.345 310.263L287.824 312.592L287.303 314.96L286.782 317.39L286.291 319.849L285.8 322.339L285.309 324.889L284.818 327.47L283.896 332.782L282.974 338.245L282.123 343.89L281.271 349.696L280.449 355.684L279.658 361.822L279.567 362.709L279.477 363.596L279.417 364.453L279.357 365.28L279.327 366.106L279.297 366.903V367.699L279.327 368.495L279.357 369.231L279.387 369.997L279.447 370.733L279.537 371.439L279.628 372.144L279.718 372.82L279.838 373.495L279.988 374.14L280.139 374.785L280.289 375.4L280.469 376.015L280.65 376.6L280.86 377.184L281.07 377.739L281.311 378.293L281.551 378.817L281.822 379.341L282.062 379.835L282.373 380.329L282.644 380.823L282.954 381.287L283.295 381.72L283.636 382.154L283.976 382.587L284.347 382.99L284.688 383.393L285.088 383.766L285.459 384.109L285.86 384.482L286.291 384.825L286.692 385.127L287.122 385.43L287.553 385.732L288.014 386.004L288.475 386.246L288.936 386.518L289.888 386.982L290.87 387.385L291.882 387.758L292.954 388.061L294.026 388.333L295.128 388.544L296.231 388.696L297.393 388.817L298.555 388.877L299.748 388.907H300.539L301.331 388.877L302.122 388.817L302.944 388.756L303.736 388.665L304.557 388.575L305.379 388.454L306.201 388.333L307.052 388.151L307.874 388L308.696 387.819L309.547 387.607L311.231 387.143L312.944 386.589L314.627 386.004L316.311 385.359L317.994 384.653L319.677 383.887L321.331 383.061L322.954 382.174L324.577 381.257L326.17 380.279L327.703 379.23L329.237 378.152L330.699 377.013L332.162 375.844L332.864 375.259L333.535 374.644L334.206 374.029L334.878 373.384L335.519 372.739L336.16 372.094L336.802 371.449L337.413 370.773L337.994 370.098L338.575 369.423L339.156 368.717L339.677 368.011L340.228 367.306L340.719 366.6L341.241 365.864L341.701 365.159L342.162 364.423L342.593 363.657L343.024 362.921L343.425 362.155L343.796 361.419L344.166 360.653L344.507 359.857L344.818 359.01ZM325.499 268.653H325.87L326.211 268.683L326.521 268.744L326.832 268.834L327.102 268.955L327.373 269.106L327.583 269.288L327.794 269.5L327.974 269.741L328.124 270.014L328.275 270.356L328.365 270.729L328.455 271.133L328.515 271.596L328.575 272.12V272.675L328.545 273.32L328.485 274.056L328.395 274.943L328.245 275.89L328.064 276.969L327.854 278.168L327.583 279.428L327.273 280.809L326.932 282.281L326.531 283.813L326.07 285.466L325.579 287.19L325.058 289.004L324.477 290.879L323.866 292.845L323.194 294.871L322.463 296.988L321.702 299.135L320.91 301.373L320.058 303.671L319.136 305.999L318.184 308.398L317.172 310.858L316.1 313.378L314.998 315.928L313.836 318.509L312.613 321.149L311.361 323.821L310.048 326.522L308.676 329.254L307.243 332.016L305.78 334.808L306.361 331.219L306.972 327.691L307.553 324.254L308.164 320.877L308.776 317.561L309.387 314.335L309.998 311.201L310.639 308.156L311.251 305.183L311.892 302.33L312.533 299.568L313.144 296.867L313.786 294.317L314.427 291.827L315.068 289.458L315.71 287.22L316.351 285.073L316.962 283.077L317.603 281.172L318.245 279.388L318.856 277.735L319.497 276.203L320.108 274.822L320.75 273.562L321.06 272.977L321.371 272.423L321.681 271.899L321.992 271.435L322.303 271.001L322.573 270.598L322.884 270.225L323.194 269.883L323.505 269.58L323.776 269.338L324.086 269.127L324.397 268.945L324.667 268.824L324.938 268.733L325.249 268.673L325.499 268.653Z" fill="white"/>
<path fill-rule="evenodd" clip-rule="evenodd" d="M403.745 359.01L403.866 358.667L403.956 358.365L404.016 358.022L404.076 357.679L404.106 357.337V357.034V356.692L404.076 356.349L404.046 356.046L403.986 355.744L403.926 355.442L403.836 355.139L403.745 354.837L403.625 354.565L403.475 354.293L403.355 354.02L403.174 353.778L403.024 353.537L402.844 353.325L402.633 353.113L402.423 352.932L402.212 352.75L401.972 352.599L401.731 352.448L401.491 352.327L401.22 352.236L400.95 352.145L400.639 352.085L400.369 352.055L400.058 352.025L399.717 352.055L399.407 352.085L399.036 353.033L398.605 353.95L398.144 354.867L397.593 355.784L397.012 356.702L396.371 357.558L395.669 358.445L394.938 359.302L394.176 360.129L393.355 360.955L392.533 361.752L391.651 362.518L390.729 363.284L389.778 363.989L388.796 364.695L387.814 365.37L386.802 366.016L385.759 366.63L384.717 367.215L383.675 367.739L382.603 368.263L381.561 368.727L380.489 369.161L379.417 369.564L378.345 369.937L377.303 370.239L376.261 370.511L375.218 370.723L374.206 370.904L373.194 371.025L372.212 371.086L371.261 371.116H370.679L370.068 371.086L369.517 371.025L368.936 370.935L368.415 370.844L367.864 370.723L367.343 370.572L366.852 370.421L366.361 370.209L365.87 369.997L365.409 369.755L364.978 369.483L364.577 369.181L364.176 368.878L363.776 368.505L363.435 368.132L363.094 367.699L362.784 367.265L362.513 366.802L362.243 366.308L362.032 365.784L361.822 365.229L361.641 364.614L361.491 364L361.371 363.354L361.281 362.679L361.221 361.973L361.19 361.238V360.441L361.221 359.645L361.311 358.818L361.401 357.931L361.491 357.105L361.581 356.278L361.671 355.421L361.792 354.565L361.912 353.708L362.032 352.851L362.182 351.994L362.303 351.168L364.477 347.791L366.581 344.475L368.595 341.189L370.579 337.963L372.473 334.768L374.307 331.633L376.05 328.528L377.764 325.484L379.387 322.48L380.95 319.537L382.413 316.654L383.816 313.831L385.188 311.069L386.441 308.368L387.663 305.727L388.796 303.116L389.868 300.596L390.88 298.137L391.832 295.738L392.683 293.409L393.475 291.172L394.206 288.994L394.848 286.877L395.459 284.851L395.95 282.886L396.411 281.011L396.812 279.197L397.122 277.473L397.363 275.85L397.513 274.288L397.573 273.552L397.633 272.816L397.663 272.11V271.435L397.633 270.548L397.603 269.721L397.513 268.865L397.393 268.068L397.242 267.302L397.062 266.536L396.852 265.83L396.611 265.125L396.341 264.449L396.03 263.804L395.689 263.189L395.319 262.575L394.918 262.02L394.487 261.466L394.056 260.972L393.595 260.478L393.074 260.014L392.553 259.581L392.032 259.178L391.451 258.805L390.87 258.462L390.258 258.119L389.617 257.847L388.976 257.605L388.305 257.363L387.603 257.182L386.902 257L386.17 256.879L385.409 256.789L384.647 256.698L383.886 256.668L383.094 256.637L381.992 256.668L380.89 256.758L379.818 256.879L378.745 257.091L377.703 257.333L376.661 257.635L375.649 258.008L374.637 258.442L373.655 258.905L372.673 259.43L371.721 260.014L370.8 260.659L369.878 261.335L368.956 262.101L368.074 262.897L367.192 263.724L366.341 264.641L365.489 265.589L364.667 266.607L363.846 267.655L363.054 268.764L362.263 269.933L361.471 271.163L360.709 272.423L359.948 273.743L359.217 275.094L358.485 276.505L357.784 277.977L357.052 279.509L356.381 281.071L355.679 282.664L355.038 284.317L354.367 286.041L353.726 287.795L353.084 289.609L352.443 291.484L351.832 293.389L351.221 295.325L350.639 297.32L350.058 299.377L349.477 301.463L348.926 303.61L348.345 305.788L347.824 307.995L347.273 310.263L346.752 312.592L346.231 314.96L345.71 317.39L345.219 319.849L344.728 322.339L344.237 324.889L343.746 327.47L342.824 332.782L341.902 338.245L341.05 343.89L340.199 349.696L339.377 355.684L338.585 361.822L338.495 362.709L338.405 363.596L338.345 364.453L338.285 365.28L338.255 366.106L338.225 366.903V367.699L338.255 368.495L338.285 369.231L338.315 369.997L338.375 370.733L338.465 371.439L338.555 372.144L338.645 372.82L338.766 373.495L338.916 374.14L339.066 374.785L339.217 375.4L339.397 376.015L339.577 376.6L339.788 377.184L339.998 377.739L340.239 378.293L340.479 378.817L340.75 379.341L340.99 379.835L341.301 380.329L341.571 380.823L341.882 381.287L342.223 381.72L342.563 382.154L342.904 382.587L343.275 382.99L343.615 383.393L344.016 383.766L344.387 384.109L344.788 384.482L345.219 384.825L345.619 385.127L346.05 385.43L346.481 385.732L346.942 386.004L347.403 386.246L347.864 386.518L348.816 386.982L349.798 387.385L350.81 387.758L351.882 388.061L352.954 388.333L354.056 388.544L355.158 388.696L356.321 388.817L357.483 388.877L358.675 388.907H359.467L360.259 388.877L361.05 388.817L361.872 388.756L362.663 388.665L363.485 388.575L364.307 388.454L365.128 388.333L365.98 388.151L366.802 388L367.623 387.819L368.475 387.607L370.158 387.143L371.872 386.589L373.555 386.004L375.238 385.359L376.922 384.653L378.605 383.887L380.259 383.061L381.882 382.174L383.505 381.257L385.098 380.279L386.631 379.23L388.164 378.152L389.627 377.013L391.09 375.844L391.792 375.259L392.463 374.644L393.134 374.029L393.806 373.384L394.447 372.739L395.088 372.094L395.729 371.449L396.341 370.773L396.922 370.098L397.503 369.423L398.084 368.717L398.605 368.011L399.156 367.306L399.647 366.6L400.168 365.864L400.629 365.159L401.09 364.423L401.521 363.657L401.952 362.921L402.353 362.155L402.723 361.419L403.094 360.653L403.435 359.857L403.745 359.01ZM384.427 268.653H384.798L385.138 268.683L385.449 268.744L385.759 268.834L386.03 268.955L386.301 269.106L386.511 269.288L386.721 269.5L386.902 269.741L387.052 270.014L387.202 270.356L387.293 270.729L387.383 271.133L387.443 271.596L387.503 272.12V272.675L387.473 273.32L387.413 274.056L387.323 274.943L387.172 275.89L386.992 276.969L386.782 278.168L386.511 279.428L386.2 280.809L385.86 282.281L385.459 283.813L384.998 285.466L384.507 287.19L383.986 289.004L383.405 290.879L382.794 292.845L382.122 294.871L381.391 296.988L380.629 299.135L379.838 301.373L378.986 303.671L378.064 305.999L377.112 308.398L376.1 310.858L375.028 313.378L373.926 315.928L372.764 318.509L371.541 321.149L370.289 323.821L368.976 326.522L367.603 329.254L366.17 332.016L364.707 334.808L365.289 331.219L365.9 327.691L366.481 324.254L367.092 320.877L367.703 317.561L368.315 314.335L368.926 311.201L369.567 308.156L370.178 305.183L370.82 302.33L371.461 299.568L372.072 296.867L372.713 294.317L373.355 291.827L373.996 289.458L374.637 287.22L375.279 285.073L375.89 283.077L376.531 281.172L377.172 279.388L377.784 277.735L378.425 276.203L379.036 274.822L379.677 273.562L379.988 272.977L380.299 272.423L380.609 271.899L380.92 271.435L381.23 271.001L381.501 270.598L381.812 270.225L382.122 269.883L382.433 269.58L382.703 269.338L383.014 269.127L383.325 268.945L383.595 268.824L383.866 268.733L384.176 268.673L384.427 268.653Z" fill="white"/>
<path d="M146.552 443.923L151.032 423.987C151.352 422.515 152.568 422.003 153.688 422.003C154.264 422.003 154.808 422.163 155.192 422.419L152.952 432.979C156.28 432.819 158.904 429.715 158.904 425.267C158.904 422.931 157.624 420.979 154.392 420.979C149.016 420.979 147.192 423.795 147.192 426.195C147.192 427.027 147.448 427.603 147.832 428.051C147.352 428.275 146.904 428.371 146.456 428.371C144.824 428.371 143.864 426.931 143.864 425.331C143.864 421.555 148.792 419.443 155.032 419.443C160.664 419.443 162.84 422.003 162.84 425.011C162.84 430.771 158.392 434.483 153.112 434.483H152.632L151 442.291C150.68 443.795 149.432 444.339 148.248 444.339C147.512 444.339 146.904 444.179 146.552 443.923ZM161.05 438.675C161.05 433.843 164.41 427.795 169.242 427.795C170.842 427.795 172.122 428.243 173.082 429.683C173.018 430.419 172.474 430.771 171.994 430.579C171.386 430.355 170.714 430.227 169.946 430.227C167.034 430.227 165.146 434.515 165.146 437.651C165.146 440.467 166.106 441.555 167.226 441.555C169.114 441.555 171.514 438.451 170.746 434.995C170.17 434.963 169.626 434.835 169.274 434.611C168.602 432.851 169.306 431.251 171.13 431.251C172.378 431.251 173.402 431.955 173.85 433.139C175.994 432.659 177.85 431.507 179.322 430.515C179.706 430.771 179.706 431.699 179.162 432.115C178.362 432.723 176.186 434.259 174.106 434.675C173.914 439.507 169.562 444.339 165.754 444.339C162.458 444.339 161.05 441.683 161.05 438.675ZM190.389 439.187C188.181 442.419 184.469 444.339 181.365 444.339C178.357 444.339 175.925 442.547 175.925 438.611C175.925 433.683 179.285 427.795 184.085 427.795C186.677 427.795 187.957 428.819 187.957 430.899C187.957 432.691 186.901 433.523 185.717 433.523C185.301 433.523 184.789 433.395 184.437 433.075C184.789 432.307 184.949 431.443 184.949 430.995C184.949 430.387 184.565 430.067 183.765 430.067C181.973 430.067 179.893 433.491 179.893 438.099C179.893 440.627 181.237 441.555 182.965 441.555C185.269 441.555 188.213 439.923 189.589 438.099C190.421 437.939 190.741 438.611 190.389 439.187ZM196.503 422.995L193.879 435.251L194.519 435.091C196.567 434.483 197.623 433.299 197.623 431.379C197.623 430.483 197.495 429.875 197.175 429.395C197.591 428.531 198.551 427.923 199.671 427.923C200.887 427.923 201.463 428.595 201.463 430.323C201.495 432.883 199.479 434.803 197.463 435.763C197.911 437.619 198.839 441.043 201.047 441.043C201.687 441.043 202.391 440.467 203.223 439.699C203.575 439.859 203.767 440.147 203.767 440.467C203.767 440.691 203.671 440.947 203.479 441.171C202.327 442.579 200.119 444.339 198.775 444.339C195.575 444.339 194.743 439.219 194.263 436.723L193.527 436.915L192.375 442.323C192.087 443.795 190.935 444.339 189.847 444.339C189.271 444.339 188.727 444.179 188.343 443.923L192.343 424.947C192.471 424.435 192.311 424.147 192.023 424.147C191.863 424.147 191.671 424.275 191.383 424.531C190.967 424.275 190.743 423.283 191.383 422.771C192.471 421.907 193.623 421.235 194.967 421.235C196.119 421.235 196.727 421.779 196.503 422.995ZM214.543 430.867C214.543 433.587 213.103 435.763 206.927 439.187C207.247 440.915 208.431 441.555 209.903 441.555C212.207 441.555 215.151 439.923 216.527 438.099C217.359 437.939 217.679 438.611 217.327 439.187C215.119 442.419 211.407 444.339 208.303 444.339C205.295 444.339 202.863 442.547 202.863 438.611C202.863 434.451 205.615 427.795 210.895 427.795C213.807 427.795 214.543 429.427 214.543 430.867ZM211.119 430.291C207.951 430.291 206.927 435.571 206.831 437.811C209.935 435.859 212.047 433.619 212.047 431.539C212.047 430.803 211.663 430.291 211.119 430.291ZM223.504 429.939H222.096L220.208 438.931C219.856 440.563 220.272 441.267 220.912 441.267C221.488 441.267 222.224 440.883 222.704 439.731C223.312 439.731 223.664 440.051 223.664 440.595C223.664 442.835 221.04 444.339 219.248 444.339C217.648 444.339 215.408 443.411 216.208 439.603L218.256 429.939H216.656C216.496 428.915 217.008 428.083 218 428.083H218.64L219.216 425.459C219.536 423.987 220.752 423.443 221.904 423.443C222.48 423.443 223.024 423.603 223.408 423.859L222.512 428.083H224.848C225.008 429.107 224.496 429.939 223.504 429.939ZM241.254 421.171C238.342 421.171 237.286 422.803 237.286 424.307C237.286 425.011 237.542 425.715 237.926 426.163C237.446 426.387 236.998 426.483 236.55 426.483C234.918 426.483 233.958 425.043 233.958 423.443C233.958 421.427 235.494 419.123 239.27 419.123C241.926 419.123 244.646 420.531 246.022 419.763C246.342 419.955 246.47 420.275 246.47 420.595C246.47 421.203 246.086 421.843 245.35 421.843H245.126L242.406 434.707C241.35 439.763 241.894 441.043 243.846 441.043C247.558 441.043 250.726 431.283 250.726 424.339C250.726 422.547 250.502 420.883 249.606 419.603C250.15 418.931 250.886 418.483 251.91 418.355C253.51 418.163 254.15 419.283 254.214 420.019C254.246 420.435 254.278 420.851 254.278 421.267C254.246 428.659 248.71 444.339 242.022 444.339C238.694 444.339 237.03 441.235 238.598 433.907L241.286 421.171H241.254ZM253.913 431.219C253.497 430.963 253.273 429.971 253.913 429.459C255.001 428.595 256.153 427.923 257.497 427.923C258.649 427.923 259.321 428.467 259.033 429.683L258.713 431.123C260.057 429.203 262.105 427.923 263.961 427.923C265.657 427.923 266.873 429.267 266.137 432.627L264.569 439.987C264.377 440.915 264.793 441.299 265.433 441.299C266.617 441.299 267.993 440.499 268.793 439.699C269.145 439.859 269.337 440.147 269.337 440.467C269.337 440.691 269.241 440.947 269.049 441.171C267.545 442.867 265.401 444.339 263.257 444.339C261.657 444.339 259.961 443.539 260.761 439.795L262.105 433.427C262.393 432.083 261.945 431.539 261.241 431.539C260.377 431.539 259.097 432.339 258.393 433.203L256.441 442.323C256.121 443.795 254.905 444.339 253.753 444.339C253.177 444.339 252.633 444.179 252.249 443.923L254.873 431.635C255.001 431.123 254.841 430.835 254.553 430.835C254.393 430.835 254.201 430.963 253.913 431.219ZM268.297 440.531L270.185 431.635C270.281 431.123 270.153 430.835 269.865 430.835C269.705 430.835 269.513 430.963 269.225 431.219C268.809 430.963 268.585 429.971 269.225 429.459C270.313 428.595 271.465 427.923 272.809 427.923C273.961 427.923 274.601 428.467 274.345 429.683L272.361 438.931C272.009 440.563 272.425 441.267 273.065 441.267C273.641 441.267 274.377 440.883 274.857 439.731C275.465 439.731 275.817 440.051 275.817 440.595C275.817 442.835 273.193 444.339 271.401 444.339C269.801 444.339 267.689 443.443 268.297 440.531ZM271.241 423.795C271.369 422.547 272.425 421.555 273.673 421.555C274.921 421.555 275.849 422.547 275.721 423.795C275.529 425.043 274.473 426.035 273.225 426.035C271.977 426.035 271.049 425.043 271.241 423.795ZM278.53 431.315C278.594 431.059 278.466 430.835 278.178 430.835C278.018 430.835 277.826 430.963 277.538 431.219C277.122 430.963 276.898 429.971 277.538 429.459C278.626 428.595 279.778 427.923 281.122 427.923C282.274 427.923 282.946 428.467 282.658 429.683C281.826 433.619 281.442 438.387 282.786 441.011C285.218 439.091 286.818 435.731 286.818 432.723C286.818 430.579 286.178 428.691 284.834 428.083C284.898 426.419 285.922 425.587 286.978 425.619C288.226 425.651 289.57 426.835 289.57 429.171C289.57 436.499 284.322 444.339 280.866 444.339C277.474 444.339 277.378 435.027 278.53 431.315ZM301.23 430.867C301.23 433.587 299.79 435.763 293.614 439.187C293.934 440.915 295.118 441.555 296.59 441.555C298.894 441.555 301.838 439.923 303.214 438.099C304.046 437.939 304.366 438.611 304.014 439.187C301.806 442.419 298.094 444.339 294.99 444.339C292.878 444.339 291.022 443.475 290.126 441.555C289.998 441.619 289.87 441.683 289.742 441.715C288.494 442.035 287.342 441.107 287.566 439.859C288.302 439.955 288.942 439.795 289.614 439.507C289.582 439.219 289.55 438.931 289.55 438.611C289.55 434.451 292.302 427.795 297.582 427.795C300.494 427.795 301.23 429.427 301.23 430.867ZM297.806 430.291C294.638 430.291 293.614 435.571 293.518 437.811C296.622 435.859 298.734 433.619 298.734 431.539C298.734 430.803 298.35 430.291 297.806 430.291ZM308.752 429.683L308.4 431.411C309.68 428.819 311.056 427.923 312.528 427.923C314.064 427.923 314.864 429.139 314.864 430.451C314.864 431.891 313.968 433.459 312.304 433.459C312.016 433.459 311.664 433.427 311.376 433.331C311.6 433.139 311.728 432.723 311.728 432.339C311.728 431.891 311.408 431.539 310.736 431.539C309.68 431.539 308.176 432.979 306.544 440.371L306.16 442.323C305.84 443.795 304.624 444.339 303.472 444.339C302.896 444.339 302.352 444.179 301.968 443.923L304.592 431.635C304.688 431.123 304.56 430.835 304.272 430.835C304.112 430.835 303.92 430.963 303.632 431.219C303.216 430.963 302.992 429.971 303.632 429.459C304.72 428.595 305.872 427.923 307.216 427.923C308.368 427.923 309.008 428.467 308.752 429.683ZM318.067 444.339C314.643 444.339 313.203 442.259 313.555 440.115C313.779 438.803 314.707 437.651 316.275 437.651C316.787 437.651 317.203 437.779 317.555 438.099C317.139 438.579 316.883 439.347 316.883 440.115C316.883 441.587 317.875 442.227 318.899 442.227C320.115 442.227 321.427 441.235 321.427 439.667C321.427 437.235 316.147 437.523 316.147 432.723C316.147 430.163 317.907 427.795 321.619 427.795C324.339 427.795 325.651 428.819 325.651 430.899C325.651 432.691 324.595 433.587 323.411 433.523C322.995 433.491 322.547 433.363 322.131 433.075C322.451 432.691 322.675 431.987 322.675 431.347C322.675 430.163 322.003 429.619 321.235 429.619C320.371 429.619 319.379 430.483 319.379 432.211C319.379 435.603 324.627 434.867 324.627 438.931C324.627 442.035 322.771 444.339 318.067 444.339ZM329.804 423.795C329.932 422.547 330.988 421.555 332.236 421.555C333.484 421.555 334.412 422.547 334.284 423.795C334.092 425.043 333.036 426.035 331.788 426.035C330.54 426.035 329.612 425.043 329.804 423.795ZM326.892 440.531L328.748 431.635C328.844 431.123 328.716 430.835 328.428 430.835C328.268 430.835 328.076 430.963 327.788 431.219C327.372 430.963 327.148 429.971 327.788 429.459C328.876 428.595 330.028 427.923 331.372 427.923C332.524 427.923 333.164 428.467 332.908 429.683L330.956 438.931C330.572 440.723 331.084 441.299 331.916 441.299C333.1 441.299 334.476 440.499 335.276 439.699C335.628 439.859 335.82 440.147 335.82 440.467C335.82 440.691 335.724 440.947 335.532 441.171C334.028 442.867 331.884 444.339 329.74 444.339C328.14 444.339 326.284 443.443 326.892 440.531ZM342.285 429.939H340.877L338.989 438.931C338.605 440.723 339.117 441.299 339.949 441.299C341.133 441.299 342.509 440.499 343.309 439.699C343.661 439.859 343.853 440.147 343.853 440.467C343.853 440.691 343.757 440.947 343.565 441.171C342.061 442.867 339.629 444.339 337.485 444.339C335.533 444.339 334.253 443.123 334.989 439.603L337.037 429.939H335.437C335.277 428.915 335.789 428.083 336.781 428.083H337.421L337.997 425.459C338.317 423.987 339.533 423.443 340.685 423.443C341.261 423.443 341.805 423.603 342.189 423.859L341.293 428.083H343.629C343.789 429.107 343.277 429.939 342.285 429.939ZM343.213 438.195L344.717 431.635C344.845 431.123 344.685 430.835 344.397 430.835C344.237 430.835 344.045 430.963 343.757 431.219C343.341 430.963 343.117 429.971 343.757 429.459C344.845 428.595 345.997 427.923 347.341 427.923C348.493 427.923 349.165 428.467 348.877 429.683L346.893 438.899C346.669 439.891 346.925 440.659 347.981 440.659C348.909 440.659 349.709 440.211 350.445 439.507L352.525 429.939C352.845 428.467 354.061 427.923 355.213 427.923C355.789 427.923 356.333 428.083 356.717 428.339L353.997 441.011C353.901 441.459 353.805 441.907 353.709 442.323C355.469 441.459 357.165 440.499 358.285 439.539C358.765 439.955 358.861 440.659 358.317 441.139C357.741 441.651 355.565 443.091 353.293 444.147C351.821 450.099 349.453 456.403 343.757 456.403C341.965 456.403 339.885 455.123 339.885 452.467C339.885 448.403 344.237 446.483 349.549 444.115C349.773 443.347 349.965 442.547 350.221 441.683C348.973 443.251 347.533 444.307 345.933 444.307C342.765 444.307 342.573 441.171 343.213 438.195ZM343.789 453.555C345.997 453.555 347.277 451.379 348.909 446.227C345.101 448.083 342.477 449.619 342.477 452.051C342.477 453.171 343.373 453.555 343.789 453.555Z" fill="white"/>
</g>
<defs>
<clipPath id="clip0_1133_9833">
<rect width="501" height="504" fill="white" transform="translate(0.339844 0.779694)"/>
</clipPath>
</defs>
</svg>
