<svg width="107" height="32" viewBox="0 0 107 32" fill="none" xmlns="http://www.w3.org/2000/svg">
<path opacity="0.9" d="M25.2769 27.6191C25.2769 27.6191 25.2769 27.6191 25.1773 27.6191C25.1773 27.6191 25.0777 27.6191 24.9781 27.7187C24.9781 27.7187 24.779 27.8183 24.6794 27.9179C22.4885 29.2125 19.7002 28.4158 18.5051 26.2249L18.306 25.8266L17.9076 25.0299L17.5093 24.4324C17.5093 24.4324 17.5093 24.3328 17.4097 24.2333L13.5259 17.4615L12.8288 16.2665L9.64208 10.6897C8.34747 8.49887 9.14416 5.7105 11.335 4.51548C12.0321 4.11714 12.7292 3.91797 13.4263 3.91797C15.0196 3.91797 16.5134 4.71465 17.3101 6.20842L26.2727 21.644C27.3682 23.6357 26.8703 26.1254 25.1773 27.42L25.2769 27.6191Z" fill="#0061F6"/>
<path d="M37.822 15.9669C37.6228 15.9669 37.4237 15.9669 37.2245 15.7677C37.0254 15.5686 36.9258 15.3694 36.9258 15.0706C36.9258 14.7719 36.9258 14.8715 36.9258 14.6723L40.3116 5.4109C40.4112 5.11215 40.6104 4.91298 40.9092 4.71381C41.2079 4.51465 41.4071 4.51465 41.7058 4.51465C42.0046 4.51465 42.3033 4.51465 42.5025 4.71381C42.8013 4.91298 43.0005 5.11215 43.1 5.4109L46.6851 14.6723C46.6851 14.7719 46.6851 14.971 46.6851 15.0706C46.6851 15.3694 46.6851 15.5686 46.3863 15.7677C46.1872 15.9669 45.988 15.9669 45.7888 15.9669C45.5896 15.9669 45.49 15.9669 45.2909 15.8673C45.0917 15.8673 44.9921 15.6681 44.8926 15.469L43.9963 13.0789C43.9963 12.9794 43.9963 12.8798 43.7971 12.8798H39.6146C39.515 12.8798 39.4154 12.8798 39.4154 13.0789L38.6187 15.469C38.6187 15.6681 38.4195 15.7677 38.2204 15.8673C38.0212 15.8673 37.9216 15.9669 37.7224 15.9669H37.822ZM40.6104 11.2864H43.1C43.1996 11.2864 43.2992 11.2864 43.3988 11.1868C43.3988 11.1868 43.3988 10.9876 43.3988 10.8881L42.1042 7.10386C42.1042 6.90469 42.0046 6.8051 41.905 6.8051C41.8054 6.8051 41.7059 6.8051 41.6063 7.10386L40.4112 10.8881C40.4112 10.9876 40.4112 11.0872 40.4112 11.1868C40.4112 11.1868 40.6104 11.2864 40.71 11.2864H40.6104Z" fill="#030870"/>
<path d="M49.6736 15.9659C49.4744 15.9659 49.1756 15.9659 48.9765 15.7668C48.7773 15.5676 48.6777 15.3684 48.6777 15.0697V5.50954C48.6777 5.21078 48.7773 5.01162 48.9765 4.81245C49.1756 4.71286 49.3748 4.61328 49.6736 4.61328C49.9723 4.61328 50.1715 4.61328 50.3707 4.81245C50.5699 4.91203 50.6694 5.21078 50.6694 5.50954V15.0697C50.6694 15.3684 50.6694 15.5676 50.3707 15.7668C50.1715 15.9659 49.9723 15.9659 49.6736 15.9659Z" fill="#030870"/>
<path d="M40.9102 28.3153C40.1135 28.3153 39.4164 28.1162 38.8188 27.8174C38.2213 27.4191 37.7234 26.9211 37.3251 26.3236C37.0263 25.7261 36.8271 24.9294 36.8271 24.1328C36.8271 23.3361 37.0263 22.639 37.3251 22.0415C37.6238 21.444 38.1217 20.9461 38.8188 20.5477C39.4164 20.1494 40.1135 20.0498 40.9102 20.0498C41.7068 20.0498 41.906 20.0498 42.3043 20.3485C42.7026 20.5477 43.0014 20.7469 43.3002 21.0457C43.3002 20.7469 43.3998 20.5477 43.599 20.4481C43.7981 20.3486 43.9973 20.249 44.1964 20.249C44.3956 20.249 44.6943 20.249 44.7939 20.4481C44.8935 20.6473 45.0927 20.8465 45.0927 21.1452V27.5187C45.0927 27.8174 45.0927 28.0166 44.7939 28.1162C44.4952 28.2157 44.3956 28.3153 44.1964 28.3153C43.9973 28.3153 43.6985 28.3153 43.599 28.1162C43.4994 27.917 43.3002 27.7178 43.3002 27.5187C43.0014 27.7178 42.7026 27.917 42.3043 28.1162C41.906 28.3153 41.4081 28.4149 40.9102 28.4149V28.3153ZM41.1093 26.6224C41.8064 26.6224 42.3043 26.4232 42.7027 25.9253C43.101 25.4274 43.3002 24.8299 43.3002 24.1328C43.3002 23.4357 43.101 22.8382 42.7027 22.3402C42.3043 21.9419 41.8064 21.6432 41.1093 21.6432C40.4122 21.6432 39.8147 21.8423 39.4164 22.3402C39.018 22.8382 38.7193 23.3361 38.7193 24.1328C38.7193 24.9294 38.9185 25.527 39.4164 25.9253C39.8147 26.4232 40.4122 26.6224 41.1093 26.6224Z" fill="#030870"/>
<path d="M50.8691 28.3153C49.6741 28.3153 48.6782 27.917 47.8816 27.1203C47.0849 26.3236 46.6865 25.3278 46.6865 24.0332C46.6865 22.7386 46.8857 22.5394 47.1844 21.9419C47.5828 21.3444 48.0807 20.8465 48.6782 20.4481C49.2757 20.0498 49.9728 19.9502 50.7695 19.9502C51.5661 19.9502 52.7612 20.249 53.5579 20.7469C53.8566 20.946 53.9562 21.1452 53.9562 21.444C53.9562 21.7427 53.9562 21.9419 53.6575 22.1411C53.4583 22.3402 53.2591 22.3402 53.06 22.3402C52.8608 22.3402 52.7612 22.3402 52.6616 22.2406C51.9645 21.7427 51.367 21.5435 50.7695 21.6431C50.0724 21.6431 49.4749 21.9419 49.0766 22.3402C48.6782 22.7386 48.479 23.3361 48.479 24.0332C48.479 24.7303 48.6782 25.4273 49.0766 25.8257C49.4749 26.224 50.0724 26.5228 50.8691 26.5228C51.6658 26.5228 52.2633 26.224 52.9603 25.7261C53.0599 25.6265 53.2591 25.5269 53.5579 25.5269C53.8566 25.5269 54.0558 25.6265 54.1554 25.8257C54.255 26.0249 54.3546 26.224 54.3546 26.4232C54.3546 26.6224 54.2549 26.9211 53.9562 27.1203C53.4583 27.5186 52.9603 27.8174 52.4624 27.917C51.9645 28.1161 51.367 28.1161 50.6699 28.1161L50.8691 28.3153Z" fill="#030870"/>
<path d="M59.5332 28.3153C58.7365 28.3153 58.0394 28.1162 57.4419 27.8174C56.8444 27.4191 56.3465 26.9211 55.9481 26.3236C55.6494 25.7261 55.4502 24.9294 55.4502 24.1328C55.4502 23.3361 55.6494 22.639 55.9481 22.0415C56.2469 21.444 56.7448 20.9461 57.4419 20.5477C58.0394 20.1494 58.7365 20.0498 59.5332 20.0498C60.3299 20.0498 60.529 20.0498 60.9274 20.3485C61.3257 20.5477 61.6244 20.7469 61.9232 21.0457C61.9232 20.7469 62.0228 20.5477 62.2219 20.4481C62.4211 20.3486 62.6203 20.249 62.8195 20.249C63.0187 20.249 63.3174 20.249 63.417 20.4481C63.6161 20.6473 63.7157 20.8465 63.7157 21.1452V27.5187C63.7157 27.8174 63.7157 28.0166 63.417 28.1162C63.2178 28.2157 63.0187 28.3153 62.8195 28.3153C62.6203 28.3153 62.3215 28.3153 62.2219 28.1162C62.1224 27.917 61.9232 27.7178 61.9232 27.5187C61.6244 27.7178 61.3257 27.917 60.9274 28.1162C60.529 28.3153 60.0311 28.4149 59.5332 28.4149V28.3153ZM59.6328 26.6224C60.3299 26.6224 60.8278 26.4232 61.2261 25.9253C61.6244 25.4274 61.8236 24.8299 61.8236 24.1328C61.8236 23.4357 61.6244 22.8382 61.2261 22.3402C60.8278 21.9419 60.3299 21.6432 59.6328 21.6432C58.9357 21.6432 58.3382 21.8423 57.9398 22.3402C57.5415 22.8382 57.2427 23.3361 57.2427 24.1328C57.2427 24.9294 57.4419 25.527 57.9398 25.9253C58.3382 26.4232 58.9357 26.6224 59.6328 26.6224Z" fill="#030870"/>
<path d="M69.292 28.3154C68.4953 28.3154 67.7982 28.1162 67.2007 27.8174C66.6032 27.4191 66.1052 26.9212 65.7069 26.3237C65.4082 25.7262 65.209 24.9295 65.209 24.1328C65.209 23.3361 65.4082 22.639 65.7069 22.0415C66.0057 21.444 66.5036 20.9461 67.2007 20.5478C67.7982 20.1494 68.4953 20.0498 69.292 20.0498C70.0887 20.0498 70.2878 20.0498 70.6861 20.249C71.0845 20.4482 71.3832 20.6473 71.682 20.9461V17.1619C71.682 16.8631 71.682 16.664 71.9808 16.4648C72.18 16.2656 72.3791 16.2656 72.5783 16.2656C72.7774 16.2656 73.0762 16.2656 73.1758 16.4648C73.3749 16.664 73.4746 16.8631 73.4746 17.1619V27.5187C73.4746 27.8175 73.4745 28.0166 73.1758 28.1162C72.877 28.2158 72.7774 28.3154 72.5783 28.3154C72.3791 28.3154 72.0804 28.3154 71.9808 28.1162C71.7816 28.0166 71.682 27.7179 71.682 27.5187C71.3832 27.7179 71.0845 27.917 70.6861 28.1162C70.2878 28.3154 69.7899 28.415 69.292 28.415V28.3154ZM69.4912 26.6224C70.1883 26.6224 70.6862 26.4233 71.0845 25.9253C71.4828 25.4274 71.682 24.8299 71.682 24.1328C71.682 23.4357 71.4828 22.8382 71.0845 22.3403C70.6862 21.8424 70.1883 21.6432 69.4912 21.6432C68.7941 21.6432 68.1966 21.8424 67.7982 22.3403C67.3999 22.8382 67.1011 23.3361 67.1011 24.1328C67.1011 24.9295 67.3003 25.527 67.7982 25.9253C68.1966 26.4233 68.7941 26.6224 69.4912 26.6224Z" fill="#030870"/>
<path d="M79.3505 28.3153C77.9563 28.3153 76.9604 27.917 76.1638 27.1203C75.3671 26.3236 75.0684 25.3278 75.0684 23.9336C75.0684 22.5394 75.4667 21.8423 76.2634 21.0456C77.0601 20.249 78.0559 19.9502 79.2509 19.9502C80.4459 19.9502 81.3422 20.2489 82.0393 20.946C82.7364 21.6431 83.1347 22.4398 83.1347 23.4357C83.1347 24.4315 83.0351 24.1327 82.836 24.3319C82.6368 24.5311 82.338 24.6307 82.0393 24.6307H77.2592C77.0601 24.6307 77.0601 24.7303 77.0601 24.9294C77.1596 25.4274 77.4584 25.8257 77.9563 26.1244C78.3547 26.4232 78.9522 26.5228 79.4501 26.5228C79.948 26.5228 80.2467 26.5228 80.6451 26.3236C81.0434 26.1244 81.3422 26.0249 81.6409 25.8257C81.6409 25.8257 81.8401 25.7261 82.0393 25.7261C82.2385 25.7261 82.4376 25.7261 82.5372 26.0249C82.6368 26.3236 82.7364 26.4232 82.7364 26.6224C82.7364 26.8215 82.7364 26.8215 82.7364 26.9211C82.7364 27.0207 82.6368 27.1203 82.5372 27.2199C82.0393 27.5186 81.5414 27.8174 81.0434 27.917C80.5455 28.0166 79.948 28.1161 79.4501 28.1161L79.3505 28.3153ZM80.9439 23.3361C81.0435 23.3361 81.143 23.3361 81.143 23.1369C81.143 22.7386 80.9439 22.3402 80.5455 22.0415C80.1472 21.7427 79.7488 21.5436 79.1513 21.5436C78.5538 21.5436 78.2551 21.6431 77.7572 21.9419C77.3588 22.2406 77.0601 22.5394 76.9605 22.9377C76.9605 23.0373 76.9605 23.1369 76.9605 23.1369C76.9605 23.1369 76.9604 23.1369 77.1596 23.1369H80.8443L80.9439 23.3361Z" fill="#030870"/>
<path d="M85.6238 28.3153C85.4246 28.3153 85.1259 28.3153 85.0263 28.1162C84.9267 27.917 84.7275 27.7178 84.7275 27.5187V21.1452C84.7275 20.8465 84.7275 20.6473 85.0263 20.4481C85.325 20.249 85.4246 20.249 85.6238 20.249C85.8229 20.249 86.0221 20.249 86.1217 20.3485C86.3209 20.3485 86.4205 20.5477 86.5201 20.7469C86.5201 20.8465 86.5201 20.9461 86.5201 21.0457C86.8188 20.7469 87.1175 20.5477 87.6155 20.3485C88.0138 20.1494 88.5118 20.0498 88.9101 20.0498C90.1051 20.0498 91.0014 20.5477 91.4993 21.444C91.6985 21.0456 92.0968 20.7469 92.5947 20.4481C93.0926 20.1494 93.6902 20.0498 94.3873 20.0498C95.0844 20.0498 96.1798 20.3486 96.7773 21.0457C97.3748 21.7427 97.6735 22.639 97.6735 23.9336V27.5187C97.6735 27.8174 97.574 28.0166 97.3748 28.1162C97.1756 28.2157 96.9764 28.3153 96.7773 28.3153C96.5781 28.3153 96.2794 28.3153 96.1798 28.1162C95.9806 28.0166 95.881 27.7178 95.881 27.5187V24.1328C95.881 22.5394 95.2835 21.7427 94.0885 21.7427C92.8934 21.7427 92.9931 21.9419 92.6943 22.2407C92.3956 22.5394 92.1964 23.0373 92.1964 23.4357V27.5187C92.1964 27.8174 92.0968 28.0166 91.8976 28.1162C91.6985 28.2157 91.4993 28.3153 91.3001 28.3153C91.1009 28.3153 90.8022 28.3153 90.7026 28.1162C90.5035 28.0166 90.4039 27.7178 90.4039 27.5187V24.1328C90.4039 23.3361 90.2047 22.7386 89.906 22.3402C89.6072 21.9419 89.2088 21.7427 88.6113 21.7427C87.8146 21.7427 87.3167 21.9419 87.018 22.4398C86.7192 22.9378 86.6196 23.4357 86.6196 24.0332V27.5187C86.6196 27.8174 86.6196 28.0166 86.3209 28.1162C86.1217 28.2157 85.9226 28.3153 85.7234 28.3153H85.6238Z" fill="#030870"/>
<path d="M98.8682 20.9461C98.8682 20.6473 98.8682 20.4481 99.1669 20.249C99.3661 20.0498 99.5653 20.0498 99.864 20.0498C100.262 20.0498 100.561 20.249 100.661 20.6473L102.752 25.8257C102.752 25.9253 102.951 26.0249 103.051 26.0249C103.15 26.0249 103.25 26.0249 103.349 25.8257L105.142 20.6473C105.242 20.249 105.54 20.0498 105.939 20.0498C106.337 20.0498 106.437 20.0498 106.636 20.249C106.835 20.4481 106.935 20.6473 106.935 20.8465C106.935 21.0456 106.935 21.0456 106.935 21.2448L102.752 31.4025C102.652 31.8008 102.354 32 101.955 32C101.557 32 101.457 32 101.258 31.8008C101.059 31.6016 100.959 31.4025 100.959 31.2033C100.959 31.0041 100.959 30.9045 100.959 30.8049L102.254 28.1162C101.856 28.1162 101.657 27.917 101.457 27.6182L98.7686 21.3444C98.7686 21.2448 98.7686 21.0457 98.7686 21.0457L98.8682 20.9461Z" fill="#030870"/>
<path d="M30.3541 4.21628C28.7608 4.61461 27.4662 5.90922 27.0678 7.50257C26.6695 9.09593 26.8687 7.60216 26.8687 7.50257C26.4703 5.90922 25.1757 4.61461 23.5824 4.21628C21.989 3.81794 23.4828 4.01711 23.5824 4.01711C25.1757 3.61877 26.4703 2.32417 26.8687 0.730812C27.267 -0.862543 27.0678 0.631227 27.0678 0.730812C27.4662 2.32417 28.7608 3.61877 30.3541 4.01711C31.9475 4.41545 30.4537 4.21628 30.3541 4.21628Z" fill="#0162F7"/>
<path opacity="0.5" d="M17.708 24.8303C17.708 24.8303 17.6084 24.6311 17.5088 24.6311C16.6125 23.3365 15.1187 22.5398 13.5254 22.5398C11.932 22.5398 10.737 23.2369 9.84075 24.2328C9.84075 24.2328 9.84077 24.2327 9.74119 24.3323C9.74119 24.3323 9.74119 24.3323 9.74119 24.4319C9.6416 24.5315 9.54197 24.7307 9.44238 24.9298L13.625 17.6602L17.8075 24.9298L17.708 24.8303Z" fill="#0E88FF"/>
<path d="M22.4881 28.614C24.9631 28.614 26.9695 26.6076 26.9695 24.1327C26.9695 21.6577 24.9631 19.6514 22.4881 19.6514C20.0132 19.6514 18.0068 21.6577 18.0068 24.1327C18.0068 26.6076 20.0132 28.614 22.4881 28.614Z" fill="#0162F7"/>
<path d="M17.409 10.888L14.2224 16.4647L13.5253 17.6597L9.54189 24.4315L9.14353 25.1286L8.44643 26.3236C7.15183 28.5144 4.3635 29.2116 2.27222 28.0165C0.0813608 26.7219 -0.615744 23.9336 0.579272 21.8423L9.54189 6.40665C10.3386 5.01246 11.9319 4.11621 13.4257 4.11621C14.1228 4.11621 14.9195 4.31537 15.517 4.71371C17.7078 6.00831 18.4049 8.79668 17.2099 10.888H17.409Z" fill="#0140FD"/>
</svg>
