<svg width="32" height="30" viewBox="0 0 32 30" fill="none" xmlns="http://www.w3.org/2000/svg">
<path opacity="0.9" d="M25.5 28.6999C25.5 28.6999 25.5 28.6999 25.4 28.6999C25.4 28.6999 25.3 28.6999 25.2 28.7999C25.2 28.7999 25 28.8999 24.9 28.9999C22.7 30.2999 19.9 29.4999 18.7 27.2999L18.5 26.8999L18.0999 26.0999L17.7 25.4999C17.7 25.4999 17.6999 25.3999 17.5999 25.2999L13.7 18.4999L13 17.2999L9.79995 11.6999C8.49995 9.49991 9.29996 6.69991 11.5 5.49991C12.2 5.09991 12.8999 4.8999 13.5999 4.8999C15.1999 4.8999 16.7 5.69991 17.5 7.19991L26.5 22.6999C27.6 24.6999 27.1 27.1999 25.4 28.4999L25.5 28.6999Z" fill="#0061F6"/>
<path d="M30.6003 5.19968C29.0003 5.59968 27.7003 6.89968 27.3003 8.49968C26.9003 10.0997 27.1003 8.59968 27.1003 8.49968C26.7003 6.89968 25.4003 5.59968 23.8003 5.19968C22.2003 4.79968 23.7003 4.99968 23.8003 4.99968C25.4003 4.59968 26.7003 3.29968 27.1003 1.69968C27.5003 0.0996796 27.3003 1.59968 27.3003 1.69968C27.7003 3.29968 29.0003 4.59968 30.6003 4.99968C32.2003 5.39968 30.7003 5.19968 30.6003 5.19968Z" fill="#0162F7"/>
<path opacity="0.5" d="M17.8997 25.8997C17.8997 25.8997 17.7996 25.6997 17.6996 25.6997C16.7996 24.3997 15.2996 23.5997 13.6996 23.5997C12.0996 23.5997 10.8996 24.2997 9.99963 25.2997C9.99963 25.2997 9.99966 25.2997 9.89966 25.3997C9.89966 25.3997 9.89966 25.3997 9.89966 25.4997C9.79966 25.5997 9.69961 25.7997 9.59961 25.9997L13.7996 18.6997L17.9996 25.9997L17.8997 25.8997Z" fill="#0E88FF"/>
<path d="M22.7002 29.6997C25.1855 29.6997 27.2002 27.685 27.2002 25.1997C27.2002 22.7144 25.1855 20.6997 22.7002 20.6997C20.2149 20.6997 18.2002 22.7144 18.2002 25.1997C18.2002 27.685 20.2149 29.6997 22.7002 29.6997Z" fill="#0162F7"/>
<path d="M17.5998 11.8996L14.3999 17.4996L13.6999 18.6996L9.69985 25.4996L9.29983 26.1996L8.59982 27.3996C7.29982 29.5996 4.49986 30.2996 2.39986 29.0996C0.199864 27.7996 -0.500148 24.9996 0.699852 22.8996L9.69985 7.3996C10.4999 5.9996 12.0998 5.09961 13.5998 5.09961C14.2998 5.09961 15.0999 5.2996 15.6999 5.6996C17.8999 6.9996 18.5999 9.7996 17.3999 11.8996H17.5998Z" fill="#0140FD"/>
</svg>
